<?xml version="1.0" encoding="utf-8"?>
<!-- Generator: Adobe Illustrator 23.0.0, SVG Export Plug-In . SVG Version: 6.00 Build 0)  -->
<svg version="1.1" id="Слой_1" xmlns="http://www.w3.org/2000/svg" xmlns:xlink="http://www.w3.org/1999/xlink" x="0px" y="0px"
	 viewBox="0 0 512 512" style="enable-background:new 0 0 512 512;" xml:space="preserve">
<style type="text/css">
	.st0{opacity:0.65;}
	.st1{clip-path:url(#SVGID_2_);}
	.st2{clip-path:url(#SVGID_4_);}
	.st3{clip-path:url(#SVGID_6_);}
</style>
<g>
	<g>
		<g>
			<g>
				<path d="M869,469.6c-3.7-1.8-9.4-0.5-9.6-0.5l0,0c-0.2,0-0.6,0.1-1.3,0.2c-1-1.9-1.5-5.5-1.6-10.8v-0.2h-1.2v0.2
					c0,4.3-0.2,8.6-1.3,11h-0.9c-1.8,0-3.3,0.1-4.8,0.5c-0.9,0.2-2,0.1-3-0.4c-0.5-0.3-1.2-0.5-1.9-0.7c2.9,1.7,5.7,3.7,8.9,4.6
					c4.5,1.4,10.7,0.8,14.9-1.3c1.2-0.6,2.3-1.4,3.3-2.2C870,470,869.5,469.8,869,469.6z M881.2,469.8c-0.9-0.7-3.3-0.3-4,0
					c-1,0.5-1.8,0.6-2.8,0.7c-0.5,0.1-1.2,0.1-1.9,0c-2.4,1.4-4.5,3.3-7.2,4.3c-3.4,1.2-7.6,1.3-11.1,0.9c-5.6-0.8-10-4.8-15-7.1
					c-2.7,0-5.3,1.1-7.1,3.1l0,0c-0.2,0.3-0.4,0.5-0.6,0.7c-0.9,1.3-0.8,2.5-0.8,2.5s-0.2,4.4,2.7,10c0.1,0.2,0.3,0.3,0.6,0.5
					c3.5,18.6,3,36.9,1.9,54v0.2h1.2v-0.2c1-17,1.5-35.2-1.9-53.8c0.3-0.1,0.5-0.2,0.6-0.3c0.7-0.7,0.7-1.8,0.7-2.9v-0.2
					c0-0.9,0-1.9,0.4-2.2c0.3-0.2,0.8-0.3,1.4-0.1c0.7,0.3,3.5,1.8,3.6,1.4c0-0.1,1.1,0.1,1.7,0.9c0.2,0.2,0.4,0.4,0.6,0.6
					c0.1,0.1,0.2,0.2,0.3,0.4c1,1,1.6,2.1,2.1,3c0.7,1.2,1.3,2.4,2.9,2c0.9-0.2,1.6-0.9,2.2-1.5c0.9-0.8,1.2-1.1,1.8-0.8
					c0.6,0.3,1.1,0.4,1.6,0.5c1,0.2,1.5,0.3,1.9,1.9c0.1,0.3,0.2,0.7,0.2,1v0.1c0.5,2.1,1,4.8,3.8,4.8c0.3,0,0.5,0,0.8-0.1
					c1.7-0.3,2.4-2.6,2.2-7.1c-0.1-1.2,0.5-2.4,1.4-3.1c0.6-0.4,1.2-0.5,1.8-0.2c1,0.5,2.1,0.5,3.2,0c0.9-0.4,1.9-0.3,2.7,0.1
					s1.3,1.1,1.5,2v0.1c0.2,1,0.6,1.7,1.3,2c0.2,0.1,0.4,0.1,0.7,0.2c-1.8,16.2-1.9,33-0.5,51.2v0.2h1.2v-0.2
					c-1.4-18.3-1.3-35.1,0.5-51.3c0.4-0.2,0.7-0.5,0.7-0.9l0.2-0.9c0.7-3.2,2.1-10.8,3-15.1c0-0.1,0-0.2,0-0.2
					C881.6,470.3,881.5,470,881.2,469.8z"/>
			</g>
		</g>
	</g>
	<g>
		<g>
			<g>
				<path d="M874.6,445.2c-0.5,8.4-5.7,14.8-14.1,17.6l-0.2,0.1l-0.3-1.1l0.2-0.1c8-2.7,12.9-8.7,13.3-16.5c0.4-7.1-2.3-14.1-5-20.9
					l-0.3-0.7c-0.1-0.4-0.3-0.7-0.4-1.1c-0.1-0.3-0.2-0.5-0.3-0.8c-1.5-3.8-3.2-7.6-5-11.2c-0.1-0.1-0.1-0.3-0.2-0.4l0,0
					c-3.1-5.9-6.7-11.2-11.4-15.1c1.7,4.8,3.4,10.4,2.7,15.6c-0.7,4.8-2.9,9.4-7,14.3l-0.8,1l0,0c-1.4,1.7-3,3.5-4.2,5.4
					c-3.1,4.8-4.1,11.3-2.6,17.2c1.2,5.2,4.2,9.3,8.3,11.7c1.2,0.7,2.5,1.2,3.9,1.6h0.2l-0.3,1.1h-0.2c-1.5-0.4-2.9-1-4.1-1.7
					c-4.4-2.5-7.5-7-8.9-12.4c-1.5-6.3-0.5-13,2.8-18.1c1.3-2,2.8-3.8,4.3-5.5l0.1-0.1c0.3-0.3,0.5-0.6,0.7-0.9
					c4-4.7,6.1-9.1,6.7-13.6c0.7-5.2-1.1-10.9-3.1-16.3c-0.1-0.3,0-0.7,0.3-0.9c0.3-0.2,0.7-0.2,0.9,0c5,3.8,8.8,9,12.1,14.9
					c0.2,0.4,0.4,0.8,0.6,1.1c1.3,2.3,2.4,4.8,3.5,7.3c0.6,1.3,1.2,2.7,1.7,4c0.4,0.9,0.7,1.8,1.1,2.6l0.3,0.7
					C872.3,430.7,875.1,437.8,874.6,445.2z"/>
			</g>
		</g>
	</g>
	<g>
		<g>
			<g>
				<path d="M858,454.4c-0.4,0.1-0.8,0.2-1.1,0.2h-2.2c-0.8-0.8-1.5-1.6-2.1-2.6c-2.2-4-0.3-6.3,1-9.9c0.4-1.1,0.8-2.5,1-3.8
					c0.3,0.9,0.7,1.7,1.2,2.5c1,1.6,2.5,2.8,3.4,4.4C861,448.4,860.4,451.8,858,454.4z"/>
				<path d="M864.7,447.2c-0.3,1.1-0.8,2.4-1.5,3.6s-1.6,2.2-2.8,2.8c0,0-0.5,0.2-1.1,0.4c1.2-1.6,1.9-3.5,1.7-5.6
					c-0.4-5.2-7.9-8.5-5.3-14c0.2-0.4-0.3-0.8-0.6-0.5c-1.1,1.2-1.1,2.1-1.4,3.7c-0.5,3.3-2.2,6-2.8,9.2c-0.6,3.1,0.8,5.6,2.7,7.7
					c-0.7-0.1-1.4-0.3-2-0.6c-2.8-1.4-4.7-4.6-4.9-8.2c-0.1-1.1,0.1-2.6,0.3-4c0.6-3.8,1.9-7.5,3.9-10.9c2-3.5,4.6-6.7,7.5-8.8
					c0.2-0.1,0.4-0.1,0.5,0c0.2,0.1,0.2,0.3,0.2,0.5c-0.9,2.4-1.8,5-1.5,7.3c0.3,2,1.3,4,3.2,6.1l2.4,2.9
					C864.9,441.3,865.4,444.4,864.7,447.2z"/>
			</g>
		</g>
	</g>
</g>
<g class="st0">
	<g>
		<g>
			<g>
				<defs>
					<path id="SVGID_1_" d="M901.7,398.8c1.9,0,1.9-3,0-3C899.8,395.8,899.8,398.8,901.7,398.8L901.7,398.8z"/>
				</defs>
				<use xlink:href="#SVGID_1_"  style="overflow:visible;"/>
				<clipPath id="SVGID_2_">
					<use xlink:href="#SVGID_1_"  style="overflow:visible;"/>
				</clipPath>
				<rect x="899.8" y="395.8" class="st1" width="3.9" height="3"/>
			</g>
			<g>
				<defs>
					<path id="SVGID_3_" d="M901.7,398.8c1.9,0,1.9-3,0-3C899.8,395.8,899.8,398.8,901.7,398.8L901.7,398.8z"/>
				</defs>
				<use xlink:href="#SVGID_3_"  style="overflow:visible;"/>
				<clipPath id="SVGID_4_">
					<use xlink:href="#SVGID_3_"  style="overflow:visible;"/>
				</clipPath>
				<circle class="st2" cx="901.7" cy="397.3" r="1.5"/>
			</g>
			<g>
				<defs>
					<path id="SVGID_5_" d="M901.7,398.8c1.9,0,1.9-3,0-3C899.8,395.8,899.8,398.8,901.7,398.8L901.7,398.8z"/>
				</defs>
				<use xlink:href="#SVGID_5_"  style="overflow:visible;"/>
				<clipPath id="SVGID_6_">
					<use xlink:href="#SVGID_5_"  style="overflow:visible;"/>
				</clipPath>
				<circle class="st3" cx="901.7" cy="397.3" r="0.7"/>
			</g>
		</g>
	</g>
</g>
<g>
	<polygon points="858.5,302 857.9,346 856.9,346 856.3,302 	"/>
</g>
<g>
	<polygon points="931.2,346.2 899.7,376.9 899,376.2 929.7,344.7 	"/>
</g>
<g>
	<polygon points="969.4,420.8 925.4,420.5 925.4,419.5 969.4,419.2 	"/>
</g>
<g>
	<polygon points="793.4,420 749.4,420.2 749.4,418.8 793.4,419 	"/>
</g>
<g>
	<polygon points="782.5,340.3 813.3,371.7 812.6,372.4 781.2,341.6 	"/>
</g>
<g>
	<polygon points="792.5,393.6 782.4,387.3 782.9,386.4 793.4,392 	"/>
</g>
<g>
	<polygon points="833.3,355.3 827.2,345.1 828,344.6 834.8,354.3 	"/>
</g>
<g>
	<polygon points="881.2,354.6 889.4,346.1 890.2,346.7 882.5,355.8 	"/>
</g>
<g>
	<polygon points="914.2,394 924.7,388.4 925.2,389.3 915.1,395.6 	"/>
</g>
<g>
	<circle cx="857.7" cy="356.8" r="1.6"/>
</g>
<g>
	<circle cx="812.7" cy="402.8" r="0.8"/>
</g>
<g>
	<circle cx="915.7" cy="419.8" r="1.6"/>
</g>
<g>
	<g>
		<path d="M872,384.8c1,0,1-1.5,0-1.5S871,384.8,872,384.8L872,384.8z"/>
	</g>
</g>
<g>
	<g>
		<path d="M884.8,406.1c1,0,1-1.5,0-1.5C883.9,404.6,883.9,406.1,884.8,406.1L884.8,406.1z"/>
	</g>
</g>
<g>
	<g>
		<path d="M847.1,391c1,0,1-1.5,0-1.5S846.1,391,847.1,391L847.1,391z"/>
	</g>
</g>
<g>
	<g>
		<path d="M821.8,450.3c1,0,1-1.5,0-1.5C820.9,448.8,820.9,450.3,821.8,450.3L821.8,450.3z"/>
	</g>
</g>
<g>
	<g>
		<path d="M814.8,439.3c1,0,1-1.5,0-1.5C813.9,437.8,813.9,439.3,814.8,439.3L814.8,439.3z"/>
	</g>
</g>
<g>
	<g>
		<path d="M880.8,442.3c1,0,1-1.5,0-1.5C879.9,440.8,879.9,442.3,880.8,442.3L880.8,442.3z"/>
	</g>
</g>
<g>
	<g>
		<path d="M827.4,420c1,0,1-1.5,0-1.5S826.4,420,827.4,420L827.4,420z"/>
	</g>
</g>
<g>
	<g>
		<path d="M831.4,389c1,0,1-1.5,0-1.5S830.4,389,831.4,389L831.4,389z"/>
	</g>
</g>
<g>
	<g>
		<path d="M897.3,449.5c1.9,0,1.9-3,0-3C895.4,446.5,895.4,449.5,897.3,449.5L897.3,449.5z"/>
	</g>
</g>
<g>
	<g>
		<path d="M879.5,417.9c1.9,0,1.9-3,0-3C877.6,414.9,877.6,417.9,879.5,417.9L879.5,417.9z"/>
	</g>
</g>
<g>
	<g>
		<path d="M852.2,378.8c2.4,0,2.4-3.8,0-3.8C849.7,375,849.7,378.8,852.2,378.8L852.2,378.8z"/>
	</g>
</g>
<g>
	<g>
		<path d="M850.3,509.5c-1.8,4.8-1.4,7.9-0.3,12.7c1.3,5.5-2.2,9.7-1.6,15.1c0.1,0.5,0.8,0.5,0.8,0c-0.5-4.3,2.3-7.8,2.2-12
			c0-1.8-0.8-3.3-1.2-5c-0.9-3.7-0.5-7.1,0.8-10.6C851.2,509.3,850.4,509.1,850.3,509.5L850.3,509.5z"/>
	</g>
</g>
<g>
	<g>
		<path d="M861.5,514.9c-1.6,2-1.3,3.9-0.2,6.2c2.8,5.9,1.9,11,1.3,17.3c0,0.5,0.7,0.5,0.8,0c0.4-3.8,1.2-8,0.9-11.8
			c-0.3-3.2-4.5-8.1-2.1-11.1C862.3,515.1,861.8,514.5,861.5,514.9L861.5,514.9z"/>
	</g>
</g>
<path d="M823.2,406.8c2.4,0,2.4-3.8,0-3.8C820.7,403,820.7,406.8,823.2,406.8"/>
<g>
	<path d="M874.5,485.2c-0.4,17.6-0.9,35.3-1.7,52.9c-0.1,1.6,2.4,1.6,2.5,0c0.7-17.6,1.3-35.3,1.7-52.9
		C877,483.6,874.5,483.6,874.5,485.2L874.5,485.2z"/>
</g>
<g>
	<path d="M833.1,474.3c-0.7,7.9,0.6,16.1,2.3,23.8c1.5,6.6,1.1,13.6,1.1,20.3c0,6.7,0.1,13.4,0.1,20.1c0,1.6,2.5,1.6,2.5,0
		c-0.1-12.4,1-25.5-0.7-37.7c-1.3-8.9-3.6-17.5-2.8-26.6C835.7,472.7,833.2,472.7,833.1,474.3L833.1,474.3z"/>
</g>
<g>
	<path d="M851,460.9c-7.8-2.3-12.1-12-11.9-19.6c0.2-7.9,6.3-12.4,10.3-18.5c6.1-9.1,6.2-20.9,1.2-30.4c-0.7,0.4-1.4,0.8-2.2,1.3
		c3,4.7,7.9,7.8,10.9,12.8c3.6,5.9,6.6,12.4,9.2,18.8c2.6,6.5,5,13.7,4.8,20.7c-0.2,8.1-7.2,12-12.9,16.5c-1.3,1,0,3.1,1.3,2.2
		c4.6-3.5,10.8-7.1,13.1-12.7c2.6-6.2,0.5-14.4-1.4-20.5c-2.3-7.5-5.9-14.8-9.5-21.8c-1.6-3.1-3.3-6.1-5.5-8.9
		c-2.4-3-5.8-5.1-7.8-8.4c-0.9-1.4-2.9-0.2-2.2,1.3c4.1,7.8,4.5,17.3,0.4,25.3c-2.9,5.7-8.4,9.7-10.9,15.7
		c-4.2,10.2,1.3,25.5,12.3,28.7C851.9,463.7,852.5,461.3,851,460.9L851,460.9z"/>
</g>
</svg>
